<?xml version="1.0" encoding="utf-8"?>
<!-- Generator: Adobe Illustrator 18.1.1, SVG Export Plug-In . SVG Version: 6.00 Build 0)  -->
<svg version="1.1" id="Layer_1" xmlns="http://www.w3.org/2000/svg" xmlns:xlink="http://www.w3.org/1999/xlink" x="0px" y="0px"
	 viewBox="0 0 40 32" enable-background="new 0 0 40 32" xml:space="preserve">
<g>
	<g>
		<path fill="#596C80" d="M20,12c-3.3,0-6,2.7-6,6c0,3.3,2.7,6,6,6c3.3,0,6-2.7,6-6C26,14.7,23.3,12,20,12L20,12z M36,6h-4.8
			c-0.7,0-1.4-0.5-1.6-1.1l-1.2-3.7C28.2,0.5,27.5,0,26.8,0H13.2c-0.7,0-1.4,0.5-1.6,1.1l-1.2,3.7C10.2,5.5,9.5,6,8.8,6H4
			c-2.2,0-4,1.8-4,4v18c0,2.2,1.8,4,4,4h32c2.2,0,4-1.8,4-4V10C40,7.8,38.2,6,36,6L36,6z M20,28c-5.5,0-10-4.5-10-10
			c0-5.5,4.5-10,10-10c5.5,0,10,4.5,10,10C30,23.5,25.5,28,20,28L20,28z M34.6,12.8c-0.8,0-1.4-0.6-1.4-1.4c0-0.8,0.6-1.4,1.4-1.4
			c0.8,0,1.4,0.6,1.4,1.4C36,12.2,35.4,12.8,34.6,12.8L34.6,12.8z M34.6,12.8"/>
	</g>
</g>
</svg>
