<svg xmlns="http://www.w3.org/2000/svg" viewBox="0 0 22 22"><path fill="#D31145" d="M14.1,16.4L14.1,16.4C14.1,16.4,14.1,16.4,14.1,16.4"/><path fill="#FFF" d="M16.5 8.3c-3 0-5.5 2.4-5.5 5.5 0 3 2.5 5.5 5.5 5.5 3 0 5.5-2.5 5.5-5.5C22 10.8 19.6 8.3 16.5 8.3M18.3 17.1l-1.7-1.7-1.7 1.7-1.3-1.3 1.7-1.8-1.7-1.7 1.3-1.3 1.7 1.7 1.7-1.7 1.3 1.3-1.7 1.7 1.7 1.8L18.3 17.1zM9.8 11.3C9.1 9.9 7.6 9.2 6.3 8.7 4.4 7.9 4.4 7.5 4.4 7.1c0-.4.4-.9 1.4-.9.9 0 1.6.3 2 .5l1.1.6 1.2-3.4-1-.4C8.6 3.2 7.9 3 6.6 2.9V1.6H3.5V3C1.7 3.7.5 5.3.5 7.3c0 3.3 3.2 4.4 4.2 4.7 1.8.7 1.8 1.2 1.8 1.6 0 1-1 1.2-1.7 1.2-.8 0-1.8-.3-2.5-.7l-1.2-.7-1.1 3.5.6.4c.8.4 2.2.9 2.8 1v1.9h3.1V18c1.9-.4 2.3-1.2 2.8-2.1-.3-.6-.3-1.3-.3-2.1C9.1 13 9.4 12.1 9.8 11.3"/></svg>