<?xml version="1.0" encoding="utf-8"?>
<!-- Generator: Adobe Illustrator 19.0.0, SVG Export Plug-In . SVG Version: 6.00 Build 0)  -->
<svg version="1.1" xmlns="http://www.w3.org/2000/svg" xmlns:xlink="http://www.w3.org/1999/xlink" x="0px" y="0px"
	 viewBox="0 0 32 32" style="enable-background:new 0 0 32 32;" xml:space="preserve">
<style type="text/css">
	.st0{display:none;}
	.st1{display:inline;}
	.st2{fill:#E86487;}
	.st3{fill:#FFFFFF;}
	.st4{fill:#8A65AC;}
</style>
<g id="Layer_1" class="st0">
	<g class="st1">
		<circle id="XMLID_3_" class="st2" cx="16" cy="16" r="15"/>
		<path class="st3" d="M19.5,8c-2.2,0-4,1.8-4,4c0,0.7,0.2,1.4,0.5,1.9l-7.1,7.1c-0.4,0.4-0.5,0.8-0.3,1.3c0.3,0.9,1.4,1.1,2,0.4
			l0.4-0.4l1.6,1.6l2.9-3L14,19.5l3.9-3.9c0.5,0.2,1.1,0.4,1.7,0.4c2.2,0,4-1.8,4-4C23.5,9.8,21.7,8,19.5,8z M19.5,14
			C19.5,14,19.5,14,19.5,14c-0.2,0-0.4,0-0.6-0.1c0,0-0.1,0-0.1,0c-0.1,0-0.1-0.1-0.2-0.1c0,0-0.1,0-0.1-0.1c-0.1,0-0.1-0.1-0.2-0.1
			c0,0-0.1-0.1-0.1-0.1c0,0-0.1-0.1-0.1-0.1c0,0-0.1-0.1-0.1-0.1c0,0-0.1-0.1-0.1-0.1c0-0.1-0.1-0.1-0.1-0.2c0,0,0-0.1-0.1-0.1
			c-0.1-0.2-0.2-0.5-0.2-0.7c0-1.1,0.9-2,2-2c1.1,0,2,0.9,2,2C21.5,13.1,20.6,14,19.5,14z"/>
	</g>
</g>
<g id="Layer_2">
	<g>
		<circle id="XMLID_32_" class="st4" cx="16" cy="16.1" r="15"/>
		<path class="st3" d="M16,7.1c-5,0-9,4-9,9c0,5,4,9,9,9s9-4,9-9C25,11.1,21,7.1,16,7.1z M13.7,18.3L13.7,18.3L13.7,18.3v-9H16v6.8
			h4.5v2.3H13.7z"/>
	</g>
</g>
</svg>
