<svg xmlns="http://www.w3.org/2000/svg" viewBox="0 0 22 22"><g fill="#FFF"><path d="M2.2 6.3L2.2 6.3 17.9 6.3 17.9 1.8 0 1.8 0 13.3 2 13.3 2 6.3"/><path d="M3.8,20.2H22V8.7H3.8V20.2z M13.9,17.9v0.9h-2v-0.8c-0.7-0.1-1-0.2-1.3-0.5l-0.3-0.2l0.5-1.7l0.6,0.3 c0.3,0.2,0.8,0.3,1.2,0.3c0.3,0,0.8-0.1,0.8-0.6c0-0.2,0-0.4-0.9-0.8c-0.5-0.2-2-0.7-2-2.3c0-1,0.7-1.7,1.4-2v-0.7h2v0.6 c0.7,0.1,0.7,0.2,0.9,0.3l0.3,0.2l-0.6,1.6L14,12.6c-0.2-0.1-0.5-0.2-1-0.2c-0.5,0-0.7,0.2-0.7,0.4c0,0.2,0,0.4,0.9,0.7 c0.9,0.3,2.1,0.9,2.1,2.3C15.4,16.7,15.3,17.6,13.9,17.9"/></g></svg>