<svg xmlns="http://www.w3.org/2000/svg" viewBox="0 0 22 22"><g fill="#FFF"><path d="M15.2,13.8c-0.4,0-0.7,0.1-1,0.4s-0.4,0.7-0.4,1.2h2.8c0-0.5-0.2-1-0.4-1.2C15.9,13.9,15.6,13.8,15.2,13.8z"/><path d="M15.2,10c-3.3,0-6,2.7-6,6s2.7,6,6,6s6-2.7,6-6C21.2,12.8,18.6,10.1,15.2,10z M14.4,17.8 c0.3,0.3,0.7,0.5,1.1,0.5c0.3,0,0.5-0.1,0.7-0.2c0.1-0.2,0.2-0.4,0.3-0.8l1.9,0.3c-0.2,0.7-0.6,1.2-1.1,1.6 c-0.5,0.4-1.2,0.5-1.9,0.5c-1.2,0-2.1-0.4-2.7-1.2C12.2,17.9,12,17,12,16.1c0-1.2,0.3-2.1,0.9-2.8c0.6-0.7,1.4-1,2.3-1 c1.1,0,1.9,0.3,2.5,1c0.6,0.7,0.9,1.8,0.9,3.2h-4.7C13.9,17.1,14.1,17.5,14.4,17.8z"/></g><path fill="#FFF" d="M8.1,12.8H3v-2.6h6.9c0.6-0.5,1.2-0.9,1.9-1.3H3V6.4h11v1.9c0.4-0.1,0.9-0.1,1.3-0.1c0.3,0,0.6,0,0.9,0.1V0 H0.8v19.2H8c-0.4-1-0.7-2.1-0.7-3.2C7.4,14.9,7.6,13.8,8.1,12.8 M3,2.6h11v2.6H3V2.6z"/></svg>