<svg xmlns="http://www.w3.org/2000/svg" viewBox="0 0 22 22"><g fill-rule="evenodd" clip-rule="evenodd" fill="#FFF"><path d="M5.8 1.7c.9 0 2.1.2 3.3.9.8.4 1.5 1 1.5 2 0 1-.7 1.6-1.5 2C6.6 7.8 4 7.8 1.5 6.6.7 6.2 0 5.6 0 4.6c0-1 .7-1.5 1.5-2C2.5 2 3.9 1.7 5.8 1.7M16.6 12.5c-1 0-2.1-.1-3.1-.5-.6-.2-1.1-.5-1.5-1-.8-.9-.8-1.8 0-2.7.4-.4.9-.7 1.5-.9 2.1-.8 4.2-.8 6.3 0 .6.2 1.1.5 1.6 1 .8.8.8 1.8 0 2.6-.8.8-1.9 1.2-3 1.4C17.8 12.5 17.2 12.5 16.6 12.5M10.7 14.2c.1.8-.1 1.4-.6 2-.6.6-1.4 1-2.3 1.2-1.8.5-3.7.5-5.5-.2-.5-.2-.9-.4-1.3-.7-.8-.6-1.2-1.3-1-2.4 1.4 1.6 3.3 2 5.3 2C7.3 16.2 9.2 15.7 10.7 14.2"/><path d="M11.4 11.6c2 2.6 8.5 2.7 10.6 0 .1.8-.1 1.4-.6 2-.5.6-1.2.9-2 1.2-1.8.6-3.7.6-5.5 0-.4-.1-.9-.3-1.3-.6C11.7 13.6 11.1 12.8 11.4 11.6M10.7 9c.2 1-.2 1.8-1 2.3-1 .7-2.1 1-3.3 1.2-1.6.2-3.1 0-4.5-.6-.3-.1-.6-.3-.9-.5C.3 10.8-.1 10 0 9c1.4 1.6 3.3 2 5.3 2C7.3 11 9.2 10.6 10.7 9"/><path d="M0 11.7c1.9 2.6 8.4 2.8 10.6 0 .1.9-.2 1.7-.8 2.2-1 .8-2.2 1.1-3.5 1.3-1.5.2-3 0-4.4-.6-.4-.2-.7-.4-1.1-.6C.2 13.4-.1 12.7 0 11.7M0 16.7c2 2.7 8.5 2.7 10.6 0 .2.8-.1 1.6-.8 2.2-1 .8-2.2 1.1-3.4 1.3-1.5.2-3 0-4.4-.6-.4-.2-.7-.3-1-.6C.3 18.5-.1 17.7 0 16.7M11.4 14.1c1.7 2.4 8.1 2.9 10.6 0 .2.9-.2 1.6-.8 2.1-.9.8-1.9 1.1-3 1.3-1.6.2-3.2.1-4.7-.5-.4-.2-.8-.4-1.2-.7C11.5 15.8 11.2 15.1 11.4 14.1"/><path d="M11.4 16.7c1.7 2.4 8.1 2.9 10.6 0 .2.9-.2 1.6-.8 2.1-.9.8-1.9 1.1-3 1.3-1.6.2-3.2.1-4.7-.5-.4-.2-.8-.4-1.2-.7C11.5 18.4 11.2 17.7 11.4 16.7M10.7 6.5c.1 1-.2 1.7-.9 2.2-1 .8-2.2 1.1-3.4 1.2-1.7.2-3.4 0-5-.9C.3 8.5-.1 7.7.1 6.6c1.4 1.6 3.3 2 5.3 2C7.4 8.6 9.2 8.2 10.7 6.5"/></g></svg>