<?xml version="1.0" encoding="utf-8"?>
<!-- Generator: Adobe Illustrator 18.1.1, SVG Export Plug-In . SVG Version: 6.00 Build 0)  -->
<svg version="1.1" id="Layer_1" xmlns="http://www.w3.org/2000/svg" xmlns:xlink="http://www.w3.org/1999/xlink" x="0px" y="0px"
	 viewBox="0 0 250 132.7" enable-background="new 0 0 250 132.7" xml:space="preserve">
<g>
	<path fill="#D31145" d="M16,119.4c-0.5,2.2-1.4,3.8-2.8,5c-1.4,1.2-3.1,1.7-5.1,1.7c-1.8,0-3.3-0.5-4.5-1.3
		C2.4,124,1.5,123,1,121.9c-0.2-0.4-0.3-0.7-0.4-1c-0.1-0.3-0.2-0.7-0.3-1.2c-0.2-0.9-0.2-2.7-0.2-5.4c0-2.7,0.1-4.5,0.2-5.4
		c0.2-0.9,0.4-1.7,0.8-2.2c0.5-1.1,1.4-2,2.6-2.9c1.2-0.9,2.7-1.3,4.5-1.3c2.2,0,4,0.7,5.3,2c1.4,1.3,2.2,3,2.6,4.9h-3.6
		c-0.3-0.9-0.8-1.7-1.5-2.4c-0.8-0.6-1.7-1-2.8-1c-0.8,0-1.5,0.2-2.1,0.5c-0.6,0.3-1.1,0.7-1.4,1.2c-0.4,0.5-0.7,1.2-0.9,1.9
		c-0.2,0.8-0.2,2.4-0.2,4.7c0,2.3,0.1,3.9,0.2,4.7c0.1,0.8,0.4,1.5,0.9,2c0.4,0.5,0.8,0.9,1.4,1.2c0.6,0.4,1.3,0.5,2.1,0.5
		c1.9,0,3.4-1.1,4.3-3.2H16z"/>
	<path fill="#D31145" d="M18.7,109.3H22v9.9c0,1.1,0.3,2,0.9,2.6c0.6,0.6,1.4,0.9,2.3,0.9s1.7-0.3,2.3-0.9c0.6-0.6,0.9-1.5,0.9-2.6
		v-9.9h3.2v16.6h-3.2v-1.8h-0.1c-1.1,1.3-2.5,2-4.2,2c-1.3,0-2.5-0.5-3.6-1.5c-1.2-1-1.8-2.4-1.8-4.3V109.3z"/>
	<path fill="#D31145" d="M36.8,120.9c1.3,1.4,3,2.1,5.1,2.1c0.9,0,1.7-0.2,2.3-0.6c0.6-0.4,0.9-0.9,0.9-1.6c0-0.6-0.2-1-0.5-1.2
		c-0.4-0.2-0.8-0.4-1.4-0.4l-2.9-0.3c-1.4-0.1-2.5-0.6-3.3-1.4c-0.9-0.8-1.3-1.9-1.3-3.3c0-1.7,0.6-3,1.8-3.8
		c1.1-0.9,2.5-1.3,4.3-1.3c0.7,0,1.4,0,2,0.1c0.6,0.1,1.1,0.3,1.7,0.4c1,0.4,1.9,1,2.7,1.7l-2,2.4c-0.6-0.5-1.3-0.8-2-1.1
		c-0.7-0.3-1.5-0.4-2.4-0.4c-1,0-1.7,0.2-2.1,0.6c-0.4,0.4-0.6,0.9-0.6,1.4c0,0.4,0.1,0.7,0.5,1c0.3,0.3,0.9,0.5,1.6,0.6l2.7,0.2
		c1.7,0.1,2.9,0.7,3.6,1.6c0.7,0.9,1,2,1,3.4c0,1.6-0.7,2.9-1.9,3.7c-1.2,0.9-2.8,1.4-4.8,1.4c-2.6,0-5-1-7.1-3L36.8,120.9z"/>
	<path fill="#D31145" d="M52.3,104.2h3.2v5.1h2.4v2.6h-2.4v9.7c0,0.8,0.4,1.3,1.1,1.2h1.2v3.1h-1.7c-1.1,0-2.1-0.4-2.8-1.1
		c-0.7-0.7-1.1-1.7-1.1-3v-10h-1.6v-2.6h1.6V104.2z"/>
	<path fill="#D31145" d="M60.4,117.6c0-1.8,0.1-3.1,0.4-4c0.3-0.9,0.7-1.7,1.3-2.3c0.4-0.6,1.1-1,1.9-1.5c0.8-0.4,1.8-0.6,3-0.7
		c1.3,0,2.3,0.2,3.1,0.7c0.8,0.4,1.4,0.9,1.8,1.5c0.6,0.6,1.1,1.4,1.4,2.3c0.3,0.9,0.4,2.3,0.4,4c0,1.8-0.1,3.1-0.4,4
		c-0.3,0.9-0.7,1.7-1.4,2.4c-0.2,0.2-0.5,0.5-0.8,0.7c-0.3,0.3-0.6,0.5-1,0.7c-0.8,0.5-1.8,0.7-3.1,0.7c-1.2,0-2.2-0.3-3-0.7
		c-0.8-0.4-1.4-0.9-1.9-1.4c-0.6-0.7-1-1.5-1.3-2.4C60.5,120.7,60.4,119.4,60.4,117.6z M70.4,117.6c0-1.2-0.1-2.1-0.2-2.6
		c-0.1-0.5-0.3-1-0.6-1.4c-0.2-0.4-0.6-0.7-1.1-0.9c-0.4-0.2-1-0.3-1.6-0.3c-0.6,0-1.1,0.1-1.5,0.3c-0.4,0.2-0.8,0.5-1.1,0.9
		c-0.3,0.4-0.5,0.9-0.6,1.4c-0.1,0.5-0.2,1.4-0.2,2.6c0,1.2,0.1,2,0.2,2.5c0.1,0.5,0.3,1,0.6,1.4c0.3,0.3,0.6,0.6,1.1,0.9
		c0.5,0.2,1,0.4,1.5,0.4c0.6,0,1.1-0.1,1.6-0.4c0.5-0.2,0.8-0.5,1.1-0.9c0.3-0.4,0.5-0.9,0.6-1.4C70.4,119.6,70.4,118.8,70.4,117.6z
		"/>
	<path fill="#D31145" d="M77.5,109.3h3.2v1.8h0.1c1.1-1.3,2.5-2,4.3-2c1.2,0,2.1,0.2,2.8,0.6c0.7,0.4,1.3,0.9,1.9,1.6
		c1.3-1.5,3-2.2,5.2-2.2c1.4,0,2.6,0.5,3.8,1.5c1.1,1,1.7,2.4,1.8,4.3v11.1h-3.2V116c0-1.2-0.3-2.1-0.9-2.7
		c-0.6-0.6-1.4-0.9-2.4-0.9s-1.8,0.3-2.4,0.9c-0.6,0.6-1,1.5-1,2.7v9.9h-3.2V116c0-1.2-0.3-2.1-0.9-2.7c-0.6-0.6-1.4-0.9-2.4-0.9
		s-1.8,0.3-2.4,0.9c-0.7,0.6-1,1.5-1,2.7v9.9h-3.2V109.3z"/>
	<path fill="#D31145" d="M108,118.9c0,1.3,0.4,2.4,1.1,3c0.7,0.7,1.6,1.1,2.7,1.1c1.3,0,2.5-0.5,3.5-1.6l2.3,2.1
		c-1.6,1.8-3.6,2.7-5.8,2.7c-0.8,0-1.7-0.1-2.5-0.4c-0.4-0.1-0.8-0.3-1.2-0.6c-0.4-0.2-0.8-0.5-1.1-0.8c-0.7-0.6-1.2-1.5-1.7-2.6
		c-0.5-1.1-0.7-2.5-0.7-4.2c0-1.6,0.2-3,0.6-4.1c0.4-1.1,0.9-2,1.5-2.6c0.6-0.7,1.4-1.1,2.2-1.4c0.8-0.3,1.6-0.4,2.3-0.4
		c1.8,0,3.4,0.6,4.7,1.9c1.3,1.2,1.9,3,2,5.2v2.8H108z M114.8,116.1c0-1.3-0.4-2.3-1-2.9c-0.6-0.6-1.4-0.9-2.4-0.9
		c-1,0-1.8,0.3-2.4,0.9c-0.6,0.7-0.9,1.6-1,2.9H114.8z"/>
	<path fill="#D31145" d="M121.9,109.3h3.2v1.8h0.1c1.1-1.3,2.5-2,4.2-2c1.3,0,2.4,0.4,3.4,1.3l-2.4,2.9c-0.7-0.6-1.4-0.8-2.1-0.8
		c-0.8,0-1.5,0.3-2.1,0.8c-0.7,0.5-1,1.4-1,2.6v10h-3.2V109.3z"/>
	<path fill="#D31145" d="M142.9,102.6h14.4v3.3h-11v6.7h9.4v3.1h-9.4v6.9h11v3.3h-14.4V102.6z"/>
	<path fill="#D31145" d="M159.3,109.3h3.9l3.2,5.4l3.2-5.4h3.9l-5.4,8.1l5.7,8.5h-3.9l-3.4-5.5l-3.4,5.5H159l5.5-8.5L159.3,109.3z"
		/>
	<path fill="#D31145" d="M176.6,109.3h3.2v1.7c1.1-1.2,2.5-1.9,4.2-1.9c2,0.1,3.4,0.8,4.3,2.2c0.4,0.5,0.7,1.2,0.9,2.1
		c0.2,0.8,0.2,2.3,0.2,4.3c0,2-0.1,3.4-0.2,4.2c-0.2,0.9-0.5,1.6-0.9,2.1c-0.4,0.6-1,1.2-1.8,1.5c-0.7,0.4-1.6,0.6-2.6,0.6
		c-0.8,0-1.6-0.2-2.2-0.6c-0.7-0.3-1.3-0.8-1.9-1.4v8.5h-3.2V109.3z M183,122.8c0.8,0,1.4-0.1,1.8-0.4c0.4-0.3,0.8-0.7,0.9-1.2
		c0.2-0.5,0.3-1.1,0.4-1.7c0-0.6,0-1.2,0-1.8c0-0.7,0-1.3,0-1.9c-0.1-0.6-0.2-1.2-0.4-1.7c-0.2-0.5-0.5-0.9-0.9-1.2
		c-0.4-0.3-1-0.4-1.8-0.4c-0.7,0-1.3,0.2-1.7,0.5c-0.4,0.3-0.8,0.7-1,1.2c-0.2,0.5-0.3,1.1-0.4,1.6c-0.1,0.6-0.1,1.2-0.1,1.9
		c0,0.6,0,1.2,0.1,1.8c0.1,0.6,0.2,1.2,0.4,1.7c0.2,0.5,0.5,0.9,1,1.2C181.7,122.6,182.3,122.8,183,122.8z"/>
	<path fill="#D31145" d="M193.6,109.3h3.2v1.8h0.1c1.1-1.3,2.5-2,4.2-2c1.3,0,2.4,0.4,3.4,1.3l-2.4,2.9c-0.7-0.6-1.4-0.8-2.1-0.8
		c-0.8,0-1.5,0.3-2.1,0.8c-0.7,0.5-1,1.4-1,2.6v10h-3.2V109.3z"/>
	<path fill="#D31145" d="M208.2,118.9c0,1.3,0.4,2.4,1.1,3c0.7,0.7,1.6,1.1,2.7,1.1c1.3,0,2.5-0.5,3.5-1.6l2.3,2.1
		c-1.6,1.8-3.6,2.7-5.8,2.7c-0.8,0-1.7-0.1-2.5-0.4c-0.4-0.1-0.8-0.3-1.2-0.6c-0.4-0.2-0.8-0.5-1.1-0.8c-0.7-0.6-1.2-1.5-1.7-2.6
		c-0.5-1.1-0.7-2.5-0.7-4.2c0-1.6,0.2-3,0.6-4.1c0.4-1.1,0.9-2,1.5-2.6c0.6-0.7,1.4-1.1,2.2-1.4c0.8-0.3,1.6-0.4,2.3-0.4
		c1.8,0,3.4,0.6,4.7,1.9c1.3,1.2,1.9,3,2,5.2v2.8H208.2z M215,116.1c0-1.3-0.4-2.3-1-2.9c-0.6-0.6-1.4-0.9-2.4-0.9
		c-1,0-1.8,0.3-2.4,0.9c-0.6,0.7-0.9,1.6-1,2.9H215z"/>
	<path fill="#D31145" d="M222.6,120.9c1.3,1.4,3,2.1,5.1,2.1c0.9,0,1.7-0.2,2.3-0.6c0.6-0.4,0.9-0.9,0.9-1.6c0-0.6-0.2-1-0.5-1.2
		c-0.4-0.2-0.8-0.4-1.4-0.4l-2.9-0.3c-1.4-0.1-2.5-0.6-3.3-1.4c-0.9-0.8-1.3-1.9-1.3-3.3c0-1.7,0.6-3,1.8-3.8
		c1.1-0.9,2.5-1.3,4.3-1.3c0.7,0,1.4,0,2,0.1c0.6,0.1,1.1,0.3,1.7,0.4c1,0.4,1.9,1,2.7,1.7l-2,2.4c-0.6-0.5-1.3-0.8-2-1.1
		c-0.7-0.3-1.5-0.4-2.4-0.4c-1,0-1.7,0.2-2.1,0.6c-0.4,0.4-0.6,0.9-0.6,1.4c0,0.4,0.1,0.7,0.5,1c0.3,0.3,0.9,0.5,1.6,0.6l2.7,0.2
		c1.7,0.1,2.9,0.7,3.6,1.6c0.7,0.9,1,2,1,3.4c0,1.6-0.7,2.9-1.9,3.7c-1.2,0.9-2.8,1.4-4.8,1.4c-2.6,0-5-1-7.1-3L222.6,120.9z"/>
	<path fill="#D31145" d="M238.4,120.9c1.3,1.4,3,2.1,5.1,2.1c0.9,0,1.7-0.2,2.3-0.6c0.6-0.4,0.9-0.9,0.9-1.6c0-0.6-0.2-1-0.5-1.2
		c-0.4-0.2-0.8-0.4-1.4-0.4l-2.9-0.3c-1.4-0.1-2.5-0.6-3.3-1.4c-0.9-0.8-1.3-1.9-1.3-3.3c0-1.7,0.6-3,1.8-3.8
		c1.1-0.9,2.5-1.3,4.3-1.3c0.7,0,1.4,0,2,0.1c0.6,0.1,1.1,0.3,1.7,0.4c1,0.4,1.9,1,2.7,1.7l-2,2.4c-0.6-0.5-1.3-0.8-2-1.1
		c-0.7-0.3-1.5-0.4-2.4-0.4c-1,0-1.7,0.2-2.1,0.6c-0.4,0.4-0.6,0.9-0.6,1.4c0,0.4,0.1,0.7,0.5,1c0.3,0.3,0.9,0.5,1.6,0.6l2.7,0.2
		c1.7,0.1,2.9,0.7,3.6,1.6c0.7,0.9,1,2,1,3.4c0,1.6-0.7,2.9-1.9,3.7c-1.2,0.9-2.8,1.4-4.8,1.4c-2.6,0-5-1-7.1-3L238.4,120.9z"/>
</g>
<path fill="#D31145" d="M137.9,49.4c-0.9-1.8-4.1-0.4-5.8-1.9c-0.4-0.4-1.4-1.3-1.9-2.8c-0.5-1.4-1.2-2.5-2.4-3.5
	c-2.1-1.6-7.1-4.1-6.7-7.5c0.2-1.5,2-1.8,2.7-2.9c0.5-0.6,0.5-1.5,1-2.1c0.6-0.7-0.2-0.7-0.8-0.7c-1.3,0-2.2,1.3-3.2,1.9
	c-1.7,0.9-3.2,2.2-5.2,2.6c-0.6,0.1-3.4,1-1.6,1.5c1.3,0.3,2.7,0.2,3.8,1.2c1.4,1.2,2.5,2.7,3.8,3.9c0.7,0.6,1.4,1.2,1.9,1.9
	c0.7,0.8,0.6,1.8,1,2.7c0.5,0.8,1.4,0.1,2,0.6c1.9,1.5-0.7,2.3-1.4,3c-0.9,1-1,1.6-2.7,2.2c-0.7,0.3-5.3,0.8-5.9,1.3
	c-0.6,0.4-0.3,0.6-0.1,0.7c0.1,0.2,0.9,0.4,1.3,0.4c1.9,0.2,7.9,1.3,9.1-0.2c0.8-1.1,2.1-1.2,3.5-0.8c1,0.3,2.9,0.1,4.6-0.6
	C135.9,49.9,138.6,49.8,137.9,49.4 M136.8,56.9c0,0-0.1,0.1-0.2,0.1c-0.1,0.1-0.2,0.1-0.2,0.1c-1.9,1-2.8,2.6-2.6,5.2
	c0.3,3.6,2.9,21.9,2.9,21.9l5.1-1.6c0,0-0.5-3-1-6.6c1.7-0.5,3.5-1.2,5.2-2.2c1.7-0.9,3.2-2,4.6-3.2c2.8,2.4,5,4.4,5,4.4l4.1-3.5
	c0,0-14.1-12-17-14.1C140.5,55.9,138.6,55.9,136.8,56.9 M143.6,69.7c-1.3,0.7-2.5,1.2-3.7,1.4c-0.6-4-1.2-7.7-1.3-8.1
	c-0.2-1.1-0.1-1.5,0.3-1.7c0.4-0.2,0.8,0,1.6,0.7c0.4,0.3,3.1,2.7,6.2,5.4C145.9,68.2,144.9,69,143.6,69.7 M122.2,84.9h5.2v-26h-5.2
	V84.9z M113.1,57.1c0,0-0.1-0.1-0.2-0.1c-0.1,0-0.2-0.1-0.2-0.1c0,0,0,0,0,0c-1.9-1-3.7-1-5.8,0.6c-2.9,2.1-17,14-17,14l4.1,3.5
	c0,0,2.3-2,5-4.4c1.4,1.2,2.9,2.3,4.6,3.2c1.7,0.9,3.4,1.7,5.2,2.2c-0.6,3.6-1.1,6.6-1.1,6.6l5.1,1.6c0,0,2.7-18.3,2.9-21.9
	C115.8,59.8,114.9,58.2,113.1,57.1 M110.8,63c-0.1,0.4-0.7,4.1-1.3,8.1c-1.2-0.3-2.4-0.7-3.7-1.4c-1.3-0.7-2.3-1.5-3.1-2.3
	c3.1-2.7,5.9-5.1,6.2-5.4c0.8-0.7,1.2-0.9,1.6-0.7C110.8,61.5,110.9,61.9,110.8,63 M94.6,63c-2.9-3.9-5-8.4-6.2-13.2
	c0.3,0.1,0.7,0.2,1.4,0.4c2.2,0.7,6.4,2.1,9.4,0.7c1.9-0.9,5.2-1.6,6.5-2.1c1.2-0.5,3.7,0.6,0.7-1.4h0c0,0-0.1,0-0.2-0.1
	c-0.1,0-0.2-0.1-0.3-0.1c-0.3-0.1-2.7,0.4-3.2,0.3c-0.2,0-0.3-0.1-0.5-0.2c-1.3-0.7,4.3-5.1,4.4-6.1c-1.6,0.2-2.9,1.2-4.3,1.8
	c-1.7,0.7-3.5,0.8-5.3,0.8c-2.1,0-3.7,1.6-5.5,2.3c-0.9,0.4-2.5,0.8-3.5,1.4c-0.1-0.4-0.1-0.9-0.2-1.3c0-0.8,0.1-1.7,0.3-2.8
	c0.4-2.4,1.4-4.2,3.5-7c0,0,2.1-2.5,3.3-3.3c0.5-0.3,1-0.8,1.5-0.5c0.5,0.3-0.1,2.4,1.3,2.7c0.9,0.2,0.1,1.6,0.4,2.4
	c0.3,0.9-3.5,4.2-2.5,4.6c0.6,0.2,3.1-1.1,4.4-1.5c1.2-0.4,2.5-0.4,3.8-1.6c1.3-1.2,2.7-2,2.7-2c1.1-0.9,2.1-1.9,3.2-2.8
	c1-0.9,2-1.9,3.1-2.8c0.6-0.6,3.5-2.2,3.8-2.8c1.3-2.9,4.8-4.6,7.4-6.4c0.5-0.3,1-1,1.3-1.4c0.3-0.4,0.6-1,0.8-1.2
	c0.3-0.4,0.4-0.7,0.8-0.8c0.1-0.1,0.7-0.1,1,0.2c0.8,0.9,2,1.7,2,2.6c0.1,1.5,4.2,2.7,5.1,3.9c0.4,0.5,0.6,0.9,0.8,1.4
	c-0.7-0.3-1.4-0.6-2-1.1c-0.4-0.3-1.4-0.2-1.9-0.3c-1.4-0.3-1.1,0.4-0.3,1.2c0.8,0.8,1.7,1.6,2.5,2.5c0.8,1,0.8,1.9,1,3.1
	c0.3,1.3,1,2.5,1.7,3.6c0.7,1.2,0.6,2.4,1,3.7c0.4,1.3,1.5,2.3,2.4,3.3c0.8,0.8,2.5,2.8,3.4,2.3c1-0.4,2.3,0.8,2.6,0.4
	c0.4-0.3-1-2-0.5-2.4c0.5-0.5,2.9,0.3,3.3,1.8c0.5,1.7,0.5,1.9,0.4,3.1c-0.1,0.8-0.4,1.5-0.9,2.1c-0.7,0.7-2.3,1.8-2,3
	c1.5-0.8,3.1-0.8,4.7-0.8c1.6,0,2.7-0.6,3.8-1.7c0.5-0.5,1.8-2.1,2.6-1.3c0.5,0.5-0.9,2.4,0.6,2c1-0.3,1.9-1,2.8-1.5
	c0.2-0.1,0.5-0.3,0.7-0.4c-1.2,4.9-3.3,9.5-6.3,13.5l1.1,0.9c5.3-6.7,8.4-15.2,8.4-24.4C164.6,17.8,146.9,0,125,0
	c-21.9,0-39.7,17.8-39.7,39.7c0,9.1,3.1,17.5,8.3,24.2L94.6,63z M125,4.4c19.7,0,35.8,14.9,37.3,33.9c-0.6,0.8-1.5,1.2-2.4,1.4
	c-3.3,0.7-4.4-2.2-7.1-4c-2.8-1.8-5.3-2.5-7.9-5.1c-1-1-1.3-2.8-2.3-3.9c-1.4-1.5-2.2-1.9-4.1-2.6c-3.3-1.3-6.1-2.2-8.8-4.4
	c-0.5-0.4-1.5-0.9-2.5-1.1c-0.4-0.1-0.6,0-0.8,0.1c-0.4,0.5-0.8,1.2-1.1,1.7c-0.1,0.2-0.4,0.6-0.7,0.9c-0.5,0.5-1.2,1.1-1.7,1.4
	c-2.7,1.7-6.3,3.1-7.9,5.9c-0.3,0.5-3.3,1.9-4,2.4c-1.1,0.9-2.1,1.8-3.3,2.6c-1,0.8-2.5,2-3.6,2.8c-0.6-0.2-1.2-0.4-1.7-0.5
	c-1.3-0.3-2.4-1.3-3.5-1.9c-1.4-0.9-1.3-1-1.7-1.2c-0.4-0.2-0.6-0.4-0.7-0.4c-1.1-0.6-1.1,0-2.6,0.9c-1.2,0.8-2.7,2-3.7,3
	c-0.9,0.8-1.7,1.6-2.6,2.5C88.9,19.6,105.1,4.4,125,4.4"/>
</svg>
