<svg xmlns="http://www.w3.org/2000/svg" viewBox="0 0 22 22"><g fill="#FFF"><path d="M22,13.2V8.8l-3-0.2c-0.2-0.6-0.4-1.1-0.7-1.6l2-2.2l-3.1-3.1l-2.2,2c-0.5-0.3-1-0.5-1.6-0.7l-0.2-3H8.8 L8.6,3C8.1,3.1,7.5,3.4,7,3.6l-2.2-2L1.7,4.8l2,2.2C3.4,7.5,3.1,8.1,3,8.6L0,8.8v4.4l3,0.2c0.2,0.6,0.4,1.1,0.7,1.6l-2,2.2l3.1,3.1 l2.2-2c0.5,0.3,1,0.5,1.6,0.7l0.2,3l4.4,0l0.2-3c0.6-0.2,1.1-0.4,1.6-0.7l2.2,2l3.1-3.1l-2-2.2c0.3-0.5,0.5-1,0.7-1.6L22,13.2z M11,16.4c-3,0-5.4-2.4-5.4-5.4C5.6,8,8,5.6,11,5.6c3,0,5.4,2.4,5.4,5.4C16.4,14,14,16.4,11,16.4"/><path d="M11.5,9.9c-0.8-0.3-0.8-0.5-0.8-0.7c0-0.2,0.2-0.4,0.6-0.4c0.4,0,0.7,0.1,0.9,0.2l0.5,0.3l0.5-1.5l-0.4-0.2 c-0.2-0.1-0.2-0.3-0.9-0.3V7l-1.5,0v0.6C9.6,7.6,9,8.5,9,9.4c0,1.4,1.3,1.9,1.8,2c0.8,0.3,0.8,0.5,0.8,0.7c0,0.4-0.4,0.5-0.7,0.5 c-0.4,0-0.8-0.1-1.1-0.3L9.2,12l-0.4,1.5c0,0,0.1,0.1,0.4,0.2c0.3,0.1,1.2,0.4,1.2,0.4v0.7h1.5V14c0.7-0.3,1.4-1.1,1.4-1.9 C13.3,10.8,12.3,10.3,11.5,9.9"/></g></svg>