<svg xmlns="http://www.w3.org/2000/svg" viewBox="0 0 22 22"><g fill="#FFF"><path d="M16.6 8.7c-3 0-5.4 2.4-5.4 5.4 0 3 2.4 5.4 5.4 5.4 3 0 5.4-2.4 5.4-5.4C22 11.1 19.6 8.7 16.6 8.7M14.2 16.7L14.2 16.7 14.2 16.7zM15.7 17.3l-2.6-2.5 1.4-1.3 1.2 1.2 2.8-2.7 1.4 1.3L15.7 17.3zM14.2 16.7L14.2 16.7 14.2 16.7zM9.9 11.4C9.2 9.9 7.7 9.1 6.4 8.6 4.4 7.9 4.4 7.5 4.4 7.1c0-.4.4-.9 1.4-.9.9 0 1.6.3 2 .5L9 7.3l1.2-3.5-1-.4C8.7 3.2 7.9 2.9 6.7 2.8V1.5H3.6V3C1.7 3.7.5 5.3.5 7.3c0 3.3 3.2 4.4 4.2 4.8 1.8.7 1.8 1.2 1.8 1.6 0 1-1.1 1.2-1.7 1.2-.9 0-1.8-.3-2.5-.7l-1.2-.7L.1 17l.6.4c.8.4 2.2.9 2.9 1v2h3.1v-2.3C8.6 17.7 9 16.9 9.5 16c-.3-.6-.3-1.4-.3-2.1C9.2 13 9.5 12.1 9.9 11.4"/></g></svg>