<?xml version="1.0" encoding="utf-8"?>
<!-- Generator: Adobe Illustrator 18.1.1, SVG Export Plug-In . SVG Version: 6.00 Build 0)  -->
<svg version="1.1" id="Layer_1" xmlns="http://www.w3.org/2000/svg" xmlns:xlink="http://www.w3.org/1999/xlink" x="0px" y="0px"
	 viewBox="0 0 64 64" enable-background="new 0 0 64 64" xml:space="preserve">
<g>
	<path fill="#E86487" d="M64,31.4c0,17.5-14,32-31.4,32.6C15.1,64,0.6,50,0,32.6C0,15.1,14,0.6,31.4,0C49.5,0,64,14,64,31.4"/>
	<path fill="#FFFFFF" d="M29.1,42.5c-2.3-4.7,0-9.9,4.7-12.2s9.9,0,12.2,4.7s0,9.9-4.7,12.2C37.2,48.9,31.4,47.1,29.1,42.5
		 M43.6,35.5c-1.7-3.5-5.2-4.7-8.7-2.9c-3.5,1.7-4.7,5.2-2.9,8.7s5.2,4.7,8.7,2.9C43.6,42.5,44.8,39,43.6,35.5"/>
	
		<rect x="30.2" y="47.8" transform="matrix(0.3352 -0.9421 0.9421 0.3352 -24.5591 64.8133)" fill="#FFFFFF" width="7" height="4.1"/>
	<path fill="#FFFFFF" d="M40.1,17.5H18.6l0.6,25.6h7.6c-1.2-2.9-1.2-5.8-0.6-8.7l0,0l0,0c1.2-2.9,2.9-5.2,5.8-6.4s5.8-1.2,8.1-0.6
		L40.1,17.5z M20.4,23.3v-3.5h18v3.5H20.4z"/>
</g>
</svg>
