<svg xmlns="http://www.w3.org/2000/svg" viewBox="0 0 22 22"><g fill="#FFF"><path d="M6 14.3c-.7-.9-1.2-2.2-1.2-3.3 0-.9 0-1.9.3-2.6C6 6.4 8 5.1 10 5v2c0 .1.2.2.3.3.1.1.3.1.4 0l4.6-3.4c.1-.1.1-.1.1-.2 0-.1 0-.2-.1-.3L10.8 0c-.1-.1-.4-.1-.5 0C10.2 0 10 .2 10 .3v2.1C6.7 2.4 3.3 4.9 2.3 8.4 2 9.5 2 10.6 2.1 11.7c.2 1.5.8 2.9 1.7 4.1l.1.1 2.2-1.5L6 14.3zM15.6 7.6c.7.9 1.2 2.2 1.2 3.3 0 .9-.1 1.9-.4 2.6-.9 1.9-3 3.3-5 3.4v-2c0-.1-.1-.2-.2-.3-.1-.1-.3-.1-.4 0L6.2 18C6.1 18.1 6 18.2 6 18.3c0 .1 0 .2.1.3l4.6 3.4c.1.1.3.1.4 0 .1-.1.2-.2.2-.3v-2.1c3.3-.1 6.8-2.6 7.8-6.1.3-1.1.4-2.2.3-3.3-.2-1.5-.7-2.9-1.7-4.1L17.6 6l-2.2 1.5L15.6 7.6z"/></g></svg>